# xmcd
#
# Track frame offsets:
#	150
#	19835
#	32400
#	44550
#	62155
#	78675
#	92527
#	105170
#	126150
#	144052
#	161365
#	177545
#	192170
#	211175
#	224407
#	242462
#
# Disc length: 3476 seconds
# Revision: 7471205
# Processed by: cddbd v1.5.2PL0 Copyright (c) Steve Scherf et al.
# Submitted via: dBpowerAMP V12.0
#
DISCID=d00d9210
DTITLE=Clint Black - The Greatest Hits
DYEAR=1996
DGENRE=Country
TTITLE0=Like The Rain
TTITLE1=Summer's Comin'
TTITLE2=A Good Run Of Bad Luck
TTITLE3=State Of Mind
TTITLE4=A Bad Goodbye
TTITLE5=A Better Man
TTITLE6=Killin' Time
TTITLE7=We Tell Ourselves
TTITLE8=Half Way Up
TTITLE9=Burn One Down
TTITLE10=Cadillac Jack Favor
TTITLE11=Put Yourself In My Shoes
TTITLE12=Wherever You Go
TTITLE13=Life Gets Away
TTITLE14=No Time To Kill
TTITLE15=Desperado (Live)
EXTD=
EXTT0=
EXTT1=
EXTT2=
EXTT3=
EXTT4=
EXTT5=
EXTT6=
EXTT7=
EXTT8=
EXTT9=
EXTT10=
EXTT11=
EXTT12=
EXTT13=
EXTT14=
EXTT15=
PLAYORDER=
